<svg width="48" height="48" viewBox="0 0 48 48" fill="none" xmlns="http://www.w3.org/2000/svg">
<path d="M8.52204 28.087H37.078C39.2798 28.087 40.3807 28.087 41.2571 27.6765C42.0291 27.3148 42.6778 26.7342 43.1224 26.0069C43.6272 25.1811 43.7488 24.087 43.9919 21.8987L45.2637 10.4529C45.338 9.78453 45.3751 9.45033 45.2676 9.19165C45.1732 8.96447 45.0046 8.77602 44.7892 8.65712C44.544 8.52174 44.2077 8.52174 43.5352 8.52174H7.43509M2 2H4.714C5.28927 2 5.5769 2 5.80193 2.1094C6.00004 2.20571 6.16421 2.35994 6.27269 2.55166C6.39591 2.76943 6.41386 3.0565 6.44974 3.63065L8.41982 35.152C8.45571 35.7261 8.47365 36.0132 8.59688 36.231C8.70536 36.4227 8.86953 36.5769 9.06764 36.6732C9.29267 36.7826 9.5803 36.7826 10.1556 36.7826H38.9565M13.9565 44.3913H13.9783M33.5217 44.3913H33.5435M15.0435 44.3913C15.0435 44.9916 14.5568 45.4783 13.9565 45.4783C13.3562 45.4783 12.8696 44.9916 12.8696 44.3913C12.8696 43.791 13.3562 43.3043 13.9565 43.3043C14.5568 43.3043 15.0435 43.791 15.0435 44.3913ZM34.6087 44.3913C34.6087 44.9916 34.1221 45.4783 33.5217 45.4783C32.9214 45.4783 32.4348 44.9916 32.4348 44.3913C32.4348 43.791 32.9214 43.3043 33.5217 43.3043C34.1221 43.3043 34.6087 43.791 34.6087 44.3913Z" stroke="#EDAD0F" stroke-width="4" stroke-linecap="round" stroke-linejoin="round"/>
</svg>
