<svg width="47" height="47" viewBox="0 0 47 47" fill="none" xmlns="http://www.w3.org/2000/svg">
<path d="M8.375 28.1085C4.44086 29.844 2 32.2625 2 34.9375C2 40.2187 11.5139 44.5 23.25 44.5C34.9861 44.5 44.5 40.2187 44.5 34.9375C44.5 32.2625 42.0591 29.844 38.125 28.1085M36 14.75C36 23.3854 26.4375 27.5 23.25 33.875C20.0625 27.5 10.5 23.3854 10.5 14.75C10.5 7.70837 16.2084 2 23.25 2C30.2916 2 36 7.70837 36 14.75ZM25.375 14.75C25.375 15.9236 24.4236 16.875 23.25 16.875C22.0764 16.875 21.125 15.9236 21.125 14.75C21.125 13.5764 22.0764 12.625 23.25 12.625C24.4236 12.625 25.375 13.5764 25.375 14.75Z" stroke="#EDAD0F" stroke-width="4" stroke-linecap="round" stroke-linejoin="round"/>
</svg>
