<svg width="47" height="43" viewBox="0 0 47 43" fill="none" xmlns="http://www.w3.org/2000/svg">
<path d="M6.8282 39.6718L20.8458 25.6542C21.6874 24.8126 22.1081 24.3919 22.5933 24.2342C23.0201 24.0955 23.4799 24.0955 23.9067 24.2342C24.3919 24.3919 24.8126 24.8126 25.6542 25.6542L39.5783 39.5783M27.5 27.5L33.5958 21.4042C34.4374 20.5626 34.8581 20.1419 35.3433 19.9842C35.7701 19.8455 36.2299 19.8455 36.6567 19.9842C37.1419 20.1419 37.5626 20.5626 38.4042 21.4042L44.5 27.5M19 14.75C19 17.0972 17.0972 19 14.75 19C12.4028 19 10.5 17.0972 10.5 14.75C10.5 12.4028 12.4028 10.5 14.75 10.5C17.0972 10.5 19 12.4028 19 14.75ZM12.2 40.25H34.3C37.8703 40.25 39.6555 40.25 41.0192 39.5552C42.2187 38.944 43.194 37.9687 43.8052 36.7692C44.5 35.4055 44.5 33.6203 44.5 30.05V12.2C44.5 8.62967 44.5 6.8445 43.8052 5.48081C43.194 4.28128 42.2187 3.30603 41.0192 2.69483C39.6555 2 37.8703 2 34.3 2H12.2C8.62967 2 6.8445 2 5.48081 2.69483C4.28128 3.30603 3.30603 4.28128 2.69483 5.48081C2 6.8445 2 8.62967 2 12.2V30.05C2 33.6203 2 35.4055 2.69483 36.7692C3.30603 37.9687 4.28128 38.944 5.48081 39.5552C6.8445 40.25 8.62967 40.25 12.2 40.25Z" stroke="#EDAD0F" stroke-width="4" stroke-linecap="round" stroke-linejoin="round"/>
</svg>
